<svg viewBox="0 0 575 575" class="roots-wrapper"><g transform="rotate(0 0 0)"><svg viewBoxSize="575" data-root-id="8107917367655" xmlns="http://www.w3.org/2000/svg" id="Layer_1" dataName="Layer 1" viewBox="205.64999389648438 143.58999633789062 496.2799987792969 593.5400390625" height="161.58258056640625" width="135.10505823426558" y="125.917" x="219.9474708828672" preserveAspectRatio="xMinYMin" zoom="1" editorType="buyer" data-layer-role="icon" style="position: absolute; height: 161.583px; width: 135.105px; top: 125.917px; left: 219.947px;"><polygon class="cls-1" points="701.93 624.35 557.27 737.13 205.65 737.13 205.65 241.98 331.86 143.59 331.86 624.35 701.93 624.35" name="Layer %{number}" zoom="1" data-layer-id="2732094867655" style="fill: rgb(191, 172, 137); fill-opacity: 1;"></polygon><rect class="cls-1" x="371.48" y="183.03" width="291.11" height="70.81" name="Layer %{number}" zoom="1" data-layer-id="9545197767655" style="fill: rgb(191, 172, 137); fill-opacity: 1;"></rect><rect class="cls-1" x="371.48" y="514.2" width="70.81" height="70.81" name="Layer %{number}" zoom="1" data-layer-id="0284090567655" style="fill: rgb(191, 172, 137); fill-opacity: 1;"></rect><rect class="cls-1" x="591.78" y="514.2" width="70.82" height="70.81" name="Layer %{number}" zoom="1" data-layer-id="8064955867655" style="fill: rgb(191, 172, 137); fill-opacity: 1;"></rect><rect class="cls-1" x="481.63" y="514.2" width="70.82" height="70.81" name="Layer %{number}" zoom="1" data-layer-id="7417264567655" style="fill: rgb(191, 172, 137); fill-opacity: 1;"></rect><rect class="cls-1" x="371.48" y="404.05" width="70.81" height="70.81" name="Layer %{number}" zoom="1" data-layer-id="0320245367655" style="fill: rgb(191, 172, 137); fill-opacity: 1;"></rect><rect class="cls-1" x="591.78" y="404.05" width="70.82" height="70.81" name="Layer %{number}" zoom="1" data-layer-id="9805715667655" style="fill: rgb(191, 172, 137); fill-opacity: 1;"></rect><rect class="cls-1" x="481.63" y="404.05" width="70.82" height="70.81" name="Layer %{number}" zoom="1" data-layer-id="6594414367655" style="fill: rgb(191, 172, 137); fill-opacity: 1;"></rect><rect class="cls-1" x="371.48" y="293.9" width="70.81" height="70.81" name="Layer %{number}" zoom="1" data-layer-id="7532379867655" style="fill: rgb(191, 172, 137); fill-opacity: 1;"></rect><rect class="cls-1" x="591.78" y="293.9" width="70.82" height="70.81" name="Layer %{number}" zoom="1" data-layer-id="6050064967655" style="fill: rgb(191, 172, 137); fill-opacity: 1;"></rect><rect class="cls-1" x="481.63" y="293.9" width="70.82" height="70.81" name="Layer %{number}" zoom="1" data-layer-id="5166384667655" style="fill: rgb(191, 172, 137); fill-opacity: 1;"></rect></svg></g><g transform="rotate(0 0 0)"><svg viewBoxSize="575" data-root-id="4425272867655" xmlns="http://www.w3.org/2000/svg" y="348.5899963378906" viewBox="0 0 0 0" x="287.50000152587893" height="0" width="0" fontUrl="http://fonts.gstatic.com/s/ropasans/v15/EYqxmaNOzLlWtsZSScyKWjloU5KP2g.ttf" zoom="1" editorType="buyer" data-layer-role="slogan" style="position: absolute; top: 348.59px; width: 0px; height: 0px; left: 287.5px;"><g data-horizontal-grow="center" zoom="1" root="[object Object]" style="fill: rgb(83, 19, 54); fill-opacity: 1;"><path d="" transform="translate(0, 0)"></path></g></svg></g><g transform="rotate(0 0 0)"><svg viewBoxSize="575" data-root-id="7498711767655" xmlns="http://www.w3.org/2000/svg" y="287.5" viewBox="-217.41090393066406 -127.70480346679688 439.77728271484375 128.30242919921875" x="67.6113" height="128.30242919921875" width="439.77728271484375" fontUrl="http://fonts.gstatic.com/s/bellefair/v14/kJExBuYY6AAuhiXUxG19__A2pOdvDA.ttf" zoom="1" editorType="buyer" data-layer-role="brandName" style="position: absolute; top: 287.5px; width: 439.777px; height: 128.302px; left: 67.6113px;"><g data-horizontal-grow="center" zoom="1" root="[object Object]" style="fill: rgb(7, 33, 72); fill-opacity: 1;"><path d="M28.34-54.31L28.34-54.31Q32.19-54.31 35.03-53.67Q37.87-53.03 39.75-51.89Q41.64-50.76 42.57-49.22Q43.51-47.68 43.51-45.89L43.51-45.89Q43.51-44.68 43.01-43.71Q42.52-42.74 41.64-42.06Q40.76-41.38 39.57-41.02Q38.38-40.65 36.99-40.65L36.99-40.65Q36.99-42.41 36.53-44.13Q36.07-45.85 35.03-47.22Q33.98-48.60 32.32-49.46Q30.65-50.32 28.20-50.32L28.20-50.32Q23.95-50.32 20.98-48.76Q18.02-47.20 16.15-44.22Q14.28-41.24 13.44-36.86Q12.60-32.48 12.60-26.84L12.60-26.84Q12.60-21.83 13.48-17.65Q14.36-13.48 16.26-10.49Q18.16-7.51 21.11-5.86Q24.06-4.21 28.20-4.21L28.20-4.21Q30.94-4.21 33.05-4.74Q35.16-5.27 36.77-6.15Q38.38-7.03 39.61-8.18Q40.83-9.34 41.78-10.58L41.78-10.58Q42.41-10.18 42.81-9.48Q43.21-8.79 43.21-7.65L43.21-7.65Q43.21-6.23 42.24-4.74Q41.27-3.26 39.29-2.05Q37.32-0.84 34.28-0.05Q31.24 0.73 27.06 0.73L27.06 0.73Q21.46 0.73 17.21-1.25Q12.96-3.22 10.09-6.85Q7.21-10.47 5.75-15.56Q4.28-20.65 4.28-26.84L4.28-26.84Q4.28-32.92 5.82-37.98Q7.36-43.03 10.38-46.66Q13.40-50.28 17.91-52.29Q22.41-54.31 28.34-54.31Z" transform="translate(-20.766357421875 0), rotate(39.35189202110706 23.895263671875 -323.15897475402414)"></path><path d="M51.38-26.84L51.38-26.84Q51.38-20.65 49.84-15.56Q48.30-10.47 45.30-6.85Q42.30-3.22 37.90-1.25Q33.51 0.73 27.83 0.73L27.83 0.73Q21.86 0.73 17.43-1.25Q13.00-3.22 10.07-6.85Q7.14-10.47 5.68-15.58Q4.21-20.69 4.21-26.92L4.21-26.92Q4.21-33.14 5.68-38.21Q7.14-43.29 10.07-46.88Q13.00-50.46 17.47-52.42Q21.94-54.38 27.91-54.38L27.91-54.38Q33.58-54.38 37.94-52.42Q42.30-50.46 45.30-46.86Q48.30-43.25 49.84-38.18Q51.38-33.11 51.38-26.84ZM12.52-26.84L12.52-26.84Q12.52-21.28 13.35-16.90Q14.17-12.52 16.00-9.50Q17.83-6.48 20.75-4.89Q23.66-3.30 27.83-3.30L27.83-3.30Q32.01-3.30 34.92-4.89Q37.83-6.48 39.64-9.50Q41.46-12.52 42.26-16.90Q43.07-21.28 43.07-26.84L43.07-26.84Q43.07-32.41 42.26-36.79Q41.46-41.16 39.64-44.17Q37.83-47.17 34.95-48.74Q32.08-50.32 27.91-50.32L27.91-50.32Q23.73-50.32 20.80-48.74Q17.87-47.17 16.02-44.17Q14.17-41.16 13.35-36.79Q12.52-32.41 12.52-26.84Z" transform="translate(-25.58203125 0), rotate(26.74589191486348 27.79541015625 -323.15897475402414)"></path><path d="M67.49 0L47.53 0L47.53-3.15L47.79-3.15Q49.00-3.15 49.97-3.31Q50.94-3.48 51.62-3.97Q52.29-4.47 52.70-5.40Q53.10-6.34 53.17-7.87L53.17-7.87L53.17-47.94L36.00 0L31.93 0L14.54-47.79L14.54-8.53Q14.54-6.77 14.90-5.71Q15.27-4.65 15.99-4.08Q16.70-3.52 17.71-3.33Q18.71-3.15 19.96-3.15L19.96-3.15L20.18-3.15L20.18 0L2.86 0L2.86-3.15L3.81-3.15Q5.05-3.15 6.17-3.31Q7.29-3.48 8.13-3.99Q8.97-4.50 9.47-5.51Q9.96-6.52 9.96-8.17L9.96-8.17L9.96-45.30Q9.96-46.95 9.47-47.96Q8.97-48.96 8.13-49.51Q7.29-50.06 6.17-50.23Q5.05-50.39 3.81-50.39L3.81-50.39L2.86-50.39L2.86-53.54L19.96-53.54L35.49-10.66L50.87-53.54L67.49-53.54L67.49-50.39L66.54-50.39Q65.26-50.39 64.14-50.21Q63.02-50.02 62.18-49.46Q61.34-48.89 60.86-47.83Q60.39-46.77 60.39-45.01L60.39-45.01L60.39-8.53Q60.39-6.77 60.86-5.71Q61.34-4.65 62.18-4.08Q63.02-3.52 64.14-3.33Q65.26-3.15 66.54-3.15L66.54-3.15L67.49-3.15L67.49 0Z" transform="translate(-32.924560546875 0), rotate(10.833060346354081 35.174560546875 -323.15897475402414)"></path><path d="M26.18 0L2.86 0L2.86-3.15L3.81-3.15Q5.09-3.15 6.21-3.33Q7.32-3.52 8.17-4.08Q9.01-4.65 9.48-5.71Q9.96-6.77 9.96-8.53L9.96-8.53L9.96-45.30Q9.96-46.95 9.47-47.96Q8.97-48.96 8.13-49.51Q7.29-50.06 6.17-50.23Q5.05-50.39 3.81-50.39L3.81-50.39L2.86-50.39L2.86-53.54L23.91-53.54Q28.64-53.54 32.12-52.46Q35.60-51.38 37.87-49.35Q40.14-47.31 41.25-44.42Q42.37-41.53 42.37-37.87L42.37-37.87Q42.37-34.53 41.33-31.46Q40.28-28.38 37.90-26.02Q35.52-23.66 31.68-22.25Q27.83-20.84 22.27-20.84L22.27-20.84L17.54-20.84L17.54-8.17Q17.54-6.52 18.04-5.51Q18.53-4.50 19.37-3.99Q20.21-3.48 21.33-3.31Q22.45-3.15 23.69-3.15L23.69-3.15L26.18-3.15L26.18 0ZM17.54-49.95L17.54-24.39L21.53-24.39Q24.94-24.39 27.36-25.10Q29.77-25.82 31.31-27.41Q32.85-29.00 33.56-31.51Q34.28-34.02 34.28-37.57L34.28-37.57Q34.28-40.72 33.65-43.05Q33.03-45.37 31.64-46.91Q30.25-48.45 28.03-49.20Q25.82-49.95 22.63-49.95L22.63-49.95L17.54-49.95Z" transform="translate(-18.532470703125 0), rotate(-3.1624065941849366 22.613525390625 -323.15897475402414)"></path><path d="M34.86-17.91L15.16-17.91L12.30-10.03Q11.98-9.16 11.79-8.29Q11.61-7.43 11.61-6.81L11.61-6.81Q11.61-4.91 12.84-4.03Q14.06-3.15 16.59-3.15L16.59-3.15L18.31-3.15L18.31 0L0 0L0-3.15L1.43-3.15Q2.53-3.15 3.30-3.39Q4.06-3.63 4.69-4.28Q5.31-4.94 5.88-6.08Q6.45-7.21 7.14-9.01L7.14-9.01L23.77-53.54L29.63-53.54L46.58-7.14Q47.02-5.97 47.48-5.20Q47.94-4.43 48.56-3.97Q49.18-3.52 49.99-3.33Q50.79-3.15 51.89-3.15L51.89-3.15L52.88-3.15L52.88 0L32.26 0L32.26-3.15L33.98-3.15Q38.49-3.15 38.49-6.74L38.49-6.74Q38.49-7.36 38.32-8.02Q38.16-8.68 37.87-9.52L37.87-9.52L34.86-17.91ZM33.51-21.68L28.86-34.79Q27.69-38.12 26.72-41.03Q25.74-43.95 25.12-46.66L25.12-46.66Q24.87-45.30 24.52-44.04Q24.17-42.77 23.77-41.46Q23.36-40.14 22.85-38.69Q22.34-37.24 21.68-35.49L21.68-35.49L16.59-21.68L33.51-21.68Z" transform="translate(-24.1904296875 0), rotate(-14.782333463186603 26.4404296875 -323.15897475402414)"></path><path d="M31.27-25.42L41.56-9.16Q43.47-6.15 45.26-4.65Q47.06-3.15 49.44-3.15L49.44-3.15L49.66-3.15L49.66 0L48.60 0Q45.08 0 42.83-0.26Q40.58-0.51 39.00-1.25Q37.43-1.98 36.31-3.30Q35.19-4.61 33.91-6.74L33.91-6.74L23.77-23.62L17.54-23.62L17.54-8.17Q17.54-6.52 18.04-5.51Q18.53-4.50 19.37-3.99Q20.21-3.48 21.33-3.31Q22.45-3.15 23.69-3.15L23.69-3.15L24.68-3.15L24.68 0L2.86 0L2.86-3.15L3.81-3.15Q5.05-3.15 6.17-3.31Q7.29-3.48 8.13-3.99Q8.97-4.50 9.47-5.51Q9.96-6.52 9.96-8.17L9.96-8.17L9.96-45.30Q9.96-46.95 9.47-47.96Q8.97-48.96 8.13-49.51Q7.29-50.06 6.17-50.23Q5.05-50.39 3.81-50.39L3.81-50.39L2.86-50.39L2.86-53.54L23.03-53.54Q32.78-53.54 37.54-49.93Q42.30-46.33 42.30-39.07L42.30-39.07Q42.30-36.07 41.33-33.82Q40.36-31.57 38.78-29.92Q37.21-28.27 35.23-27.17Q33.25-26.07 31.27-25.42L31.27-25.42ZM17.54-49.95L17.54-27.14L22.81-27.14Q26.11-27.14 28.31-27.87Q30.51-28.60 31.82-30.07Q33.14-31.53 33.71-33.73Q34.28-35.93 34.28-38.85L34.28-38.85Q34.28-41.86 33.65-43.96Q33.03-46.07 31.64-47.41Q30.25-48.74 28.03-49.35Q25.82-49.95 22.63-49.95L22.63-49.95L17.54-49.95Z" transform="translate(-22.341064453125 0), rotate(-27.438135248078773 26.25732421875 -323.15897475402414)"></path><path d="M17.54-26.18L17.54-3.74L32.01-3.74Q33.80-3.74 35.06-4.23Q36.33-4.72 37.17-5.57Q38.01-6.41 38.49-7.53Q38.96-8.64 39.15-9.89L39.15-9.89L39.66-13.11L43.58-13.11L43.07 0L2.86 0L2.86-3.15L3.81-3.15Q5.05-3.15 6.17-3.31Q7.29-3.48 8.13-3.99Q8.97-4.50 9.47-5.51Q9.96-6.52 9.96-8.17L9.96-8.17L9.96-45.01Q9.96-46.77 9.48-47.83Q9.01-48.89 8.17-49.46Q7.32-50.02 6.21-50.21Q5.09-50.39 3.81-50.39L3.81-50.39L2.86-50.39L2.86-53.54L40.65-53.54L41.02-40.43L37.13-40.43L36.77-43.65Q36.62-44.90 36.20-46.01Q35.78-47.13 34.99-47.97Q34.20-48.82 33.01-49.31Q31.82-49.80 30.14-49.80L30.14-49.80L17.54-49.80L17.54-29.85L35.63-29.85L35.63-26.18L17.54-26.18Z" transform="translate(-21.1142578125 0), rotate(-39.25726883167476 23.2177734375 -323.15897475402414)"></path></g></svg></g></svg>
